<?xml version="1.0" encoding="utf-8"?>
<!-- Generator: Adobe Illustrator 18.1.0, SVG Export Plug-In . SVG Version: 6.00 Build 0)  -->
<!DOCTYPE svg PUBLIC "-//W3C//DTD SVG 1.1//EN" "http://www.w3.org/Graphics/SVG/1.1/DTD/svg11.dtd">
<svg version="1.1" id="Layer_1" xmlns="http://www.w3.org/2000/svg" xmlns:xlink="http://www.w3.org/1999/xlink" x="0px" y="0px"
	 viewBox="0 0 275 59" enable-background="new 0 0 275 59" xml:space="preserve">
<g>
	<path fill="#455560" d="M3.6,8.7h27.3v4.8H8.9v11.9h19.3v4.7H8.9v17.9H3.6V8.7z"/>
	<path fill="#455560" d="M35.8,8.7h4.9v5.5h-4.9V8.7z M35.8,19.5h4.9v28.5h-4.9V19.5z"/>
	<path fill="#455560" d="M50.8,19.4l7.7,23.3l8-23.3h5.3L60.9,48.1h-5.1L45.2,19.4H50.8z"/>
	<path fill="#455560" d="M93.2,20.2c1.9,1,3.3,2.2,4.3,3.7c1,1.4,1.6,3.1,1.9,5.1c0.3,1.3,0.4,3.4,0.4,6.3H79.1c0.1,2.9,0.8,5.3,2,7
		c1.3,1.8,3.2,2.6,5.9,2.6c2.5,0,4.5-0.8,6-2.5c0.8-1,1.4-2.1,1.8-3.4h4.7c-0.1,1.1-0.5,2.2-1.2,3.5c-0.7,1.3-1.5,2.4-2.4,3.2
		c-1.5,1.4-3.2,2.4-5.4,2.9c-1.2,0.3-2.5,0.4-3.9,0.4c-3.5,0-6.6-1.3-9-3.9c-2.5-2.6-3.7-6.2-3.7-10.9c0-4.6,1.2-8.3,3.7-11.2
		c2.5-2.9,5.7-4.3,9.7-4.3C89.4,18.7,91.3,19.2,93.2,20.2z M95,31.4c-0.2-2.1-0.6-3.8-1.4-5c-1.3-2.3-3.5-3.5-6.6-3.5
		c-2.2,0-4,0.8-5.5,2.4c-1.5,1.6-2.3,3.6-2.4,6.1H95z"/>
	<path fill="#455560" d="M123.2,8.7h5.4v39.3h-5.4V8.7z"/>
	<path fill="#455560" d="M139,39.1c0.1,1.6,0.6,2.8,1.2,3.7c1.2,1.6,3.4,2.3,6.4,2.3c1.8,0,3.4-0.4,4.8-1.2c1.4-0.8,2.1-2,2.1-3.6
		c0-1.2-0.6-2.2-1.7-2.8c-0.7-0.4-2.1-0.8-4.2-1.4l-3.9-1c-2.5-0.6-4.3-1.3-5.5-2c-2.1-1.3-3.2-3.1-3.2-5.4c0-2.7,1-4.9,3-6.6
		c2-1.7,4.6-2.5,8-2.5c4.4,0,7.5,1.3,9.5,3.8c1.2,1.6,1.8,3.3,1.8,5.2h-4.6c-0.1-1.1-0.5-2.1-1.2-3c-1.1-1.3-3.1-1.9-5.9-1.9
		c-1.9,0-3.3,0.3-4.2,1c-1,0.7-1.4,1.6-1.4,2.7c0,1.2,0.6,2.2,1.9,3c0.7,0.4,1.8,0.8,3.2,1.2l3.2,0.8c3.5,0.8,5.9,1.7,7.1,2.4
		c1.9,1.2,2.8,3.2,2.8,5.8c0,2.6-1,4.8-2.9,6.6c-2,1.9-4.9,2.8-9,2.8c-4.3,0-7.4-1-9.2-2.9c-1.8-1.9-2.8-4.3-2.9-7.2H139z"/>
	<path fill="#455560" d="M164.1,8.7h4.8v39.3h-4.8V8.7z"/>
	<path fill="#455560" d="M217.5,19.4h4.6v4.1c1.4-1.7,2.8-2.9,4.3-3.6c1.5-0.7,3.2-1.1,5.1-1.1c4.1,0,6.8,1.4,8.2,4.3
		c0.8,1.6,1.2,3.8,1.2,6.7v18.4H236V30c0-1.7-0.3-3.2-0.8-4.2c-0.9-1.8-2.4-2.7-4.7-2.7c-1.1,0-2.1,0.1-2.8,0.3
		c-1.3,0.4-2.5,1.2-3.5,2.4c-0.8,0.9-1.3,1.9-1.6,2.9c-0.2,1-0.4,2.4-0.4,4.3v15h-4.8V19.4z"/>
	<path fill="#455560" d="M264.2,20.3c0.9,0.5,1.8,1.5,2.9,2.8V8.6h4.6v39.4h-4.3v-4c-1.1,1.8-2.4,3-4,3.8c-1.5,0.8-3.3,1.2-5.3,1.2
		c-3.2,0-5.9-1.3-8.3-4c-2.3-2.7-3.5-6.3-3.5-10.7c0-4.2,1.1-7.8,3.2-10.9c2.1-3.1,5.2-4.6,9.1-4.6
		C260.9,18.9,262.7,19.3,264.2,20.3z M253.4,41.8c1.3,2.1,3.4,3.1,6.2,3.1c2.2,0,4-1,5.5-2.9c1.4-1.9,2.1-4.7,2.1-8.3
		c0-3.6-0.7-6.3-2.2-8c-1.5-1.7-3.3-2.6-5.5-2.6c-2.4,0-4.4,0.9-5.9,2.8c-1.5,1.9-2.2,4.6-2.2,8.2C251.5,37.1,252.1,39.7,253.4,41.8
		z"/>
	<path fill="#5E9732" d="M199.8,35.1l0,0.2c-0.7,5.2-5.1,9.2-10.4,9.2c-5.8,0-10.5-4.8-10.6-10.7c0-5.9,4.7-10.7,10.6-10.7
		c4.7,0,7.7,2.6,9.8,6.7l8.4,18.4h4.7l-6.5-14.4l6.4-14.2H207l-4,9.1c-2.1-5.6-7.4-9.6-13.7-9.6c-8.1,0-14.7,6.6-14.7,14.8
		c0,8.2,6.6,14.8,14.7,14.8c5.6,0,10.5-3.2,13-7.9L199.8,35.1z"/>
</g>
</svg>
