<?xml version="1.0" encoding="utf-8"?>
<!-- Generator: Adobe Illustrator 18.1.0, SVG Export Plug-In . SVG Version: 6.00 Build 0)  -->
<!DOCTYPE svg PUBLIC "-//W3C//DTD SVG 1.1//EN" "http://www.w3.org/Graphics/SVG/1.1/DTD/svg11.dtd">
<svg version="1.1" id="Layer_1" xmlns="http://www.w3.org/2000/svg" xmlns:xlink="http://www.w3.org/1999/xlink" x="0px" y="0px"
	 viewBox="0 0 930.2 200" enable-background="new 0 0 930.2 200" xml:space="preserve">
<g>
	<rect x="-32.9" y="-35" display="none" fill="#636466" width="996" height="256"/>
	<path fill="#FFFFFF" d="M19.7,31.8h91.9v16.2h-74v40.2h65v15.8h-65v60.3h-18V31.8z"/>
	<path fill="#FFFFFF" d="M128.3,31.8h16.5v18.4h-16.5V31.8z M128.3,68.2h16.5v96.2h-16.5V68.2z"/>
	<path fill="#FFFFFF" d="M178.7,67.7l25.8,78.7l26.9-78.7h17.8l-36.4,96.6h-17.3l-35.6-96.6H178.7z"/>
	<path fill="#FFFFFF" d="M321.9,70.4c6.4,3.2,11.3,7.4,14.6,12.5c3.2,4.9,5.4,10.6,6.5,17.1c1,4.5,1.4,11.5,1.4,21.3h-70.3
		c0.3,9.8,2.6,17.7,6.9,23.7c4.3,5.9,11,8.9,20,8.9c8.4,0,15.1-2.8,20.1-8.4c2.8-3.3,4.8-7,6-11.3h16c-0.4,3.5-1.8,7.5-4.2,11.9
		c-2.4,4.4-5,7.9-8,10.7c-4.9,4.8-10.9,8.1-18.2,9.7c-3.9,1-8.3,1.4-13.2,1.4c-11.9,0-22.1-4.4-30.4-13.1
		c-8.3-8.8-12.5-21-12.5-36.8c0-15.5,4.2-28.1,12.6-37.8c8.4-9.7,19.3-14.5,32.8-14.5C308.9,65.6,315.5,67.2,321.9,70.4z
		 M327.7,108.3c-0.7-7-2.2-12.7-4.6-16.9c-4.4-7.8-11.8-11.7-22.1-11.7c-7.4,0-13.6,2.7-18.6,8.1c-5,5.4-7.7,12.2-8,20.5H327.7z"/>
	<path fill="#FFFFFF" d="M422.9,31.8H441v132.5h-18.1V31.8z"/>
	<path fill="#FFFFFF" d="M476.2,134.1c0.5,5.4,1.9,9.6,4.1,12.4c4.2,5.2,11.4,7.9,21.7,7.9c6.1,0,11.5-1.3,16.2-3.9
		c4.7-2.6,7-6.7,7-12.1c0-4.1-1.9-7.3-5.6-9.5c-2.4-1.3-7.1-2.9-14.1-4.6l-13.1-3.2c-8.4-2-14.5-4.3-18.5-6.9
		c-7.1-4.4-10.6-10.5-10.6-18.2c0-9.1,3.3-16.5,10-22.2c6.7-5.7,15.7-8.5,26.9-8.5c14.7,0,25.4,4.3,31.9,12.8
		c4.1,5.4,6.1,11.2,5.9,17.5h-15.3c-0.3-3.6-1.6-7-4-10c-3.8-4.2-10.4-6.4-19.9-6.4c-6.3,0-11,1.2-14.3,3.5
		c-3.2,2.3-4.8,5.4-4.8,9.3c0,4.2,2.1,7.6,6.4,10.1c2.5,1.5,6.1,2.8,10.8,4l10.9,2.6c11.9,2.8,19.9,5.6,23.9,8.2
		c6.3,4.1,9.5,10.7,9.5,19.6c0,8.6-3.3,16-9.9,22.3c-6.6,6.3-16.7,9.4-30.2,9.4c-14.6,0-24.9-3.3-30.9-9.8
		c-6.1-6.5-9.3-14.6-9.7-24.2H476.2z"/>
	<path fill="#FFFFFF" d="M560.7,31.8H577v132.5h-16.2V31.8z"/>
	<path fill="#FFFFFF" d="M741,67.7h15.4v13.7c4.6-5.7,9.4-9.7,14.5-12.2c5.1-2.5,10.8-3.7,17.1-3.7c13.7,0,23,4.8,27.8,14.3
		c2.6,5.2,4,12.7,4,22.5v62h-16.5v-60.9c0-5.9-0.9-10.6-2.6-14.3c-2.9-6-8.1-9-15.7-9c-3.9,0-7,0.4-9.5,1.2c-4.5,1.3-8.4,4-11.7,7.9
		c-2.7,3.2-4.5,6.5-5.3,9.9c-0.8,3.4-1.2,8.3-1.2,14.6v50.6H741V67.7z"/>
	<path fill="#FFFFFF" d="M898.1,70.7c2.9,1.8,6.1,5,9.8,9.5V31.4h15.6v133h-14.6v-13.4c-3.8,5.9-8.2,10.3-13.4,12.9
		c-5.2,2.6-11.1,4-17.7,4c-10.7,0-20-4.5-27.9-13.6c-7.9-9.1-11.8-21.1-11.8-36.1c0-14.1,3.6-26.3,10.7-36.6
		c7.2-10.3,17.4-15.5,30.7-15.5C887,66,893.2,67.6,898.1,70.7z M861.9,143.2c4.4,7,11.4,10.5,21,10.5c7.5,0,13.6-3.2,18.4-9.7
		c4.8-6.5,7.2-15.7,7.2-27.8c0-12.2-2.5-21.2-7.4-27.1c-5-5.9-11.1-8.8-18.4-8.8c-8.1,0-14.7,3.1-19.8,9.4
		c-5.1,6.3-7.6,15.5-7.6,27.6C855.3,127.5,857.5,136.2,861.9,143.2z"/>
	<path fill="#5E9732" d="M681,120.6l-0.1,0.8c-2.5,17.4-17.3,30.8-35.2,30.8c-19.6-0.1-35.5-16.2-35.6-36.1
		c0-19.9,15.9-36.1,35.6-36c15.9,0,26,8.8,33,22.5l28.2,61.9h15.8l-22-48.6l21.5-48h-16.6L692,98.5c-7-18.9-25.1-32.4-46.2-32.4
		c-27.3,0-49.4,22.4-49.4,50c0,27.6,22.1,50,49.4,50c19,0,35.4-10.8,43.7-26.7L681,120.6z"/>
</g>
<image display="none" overflow="visible" width="930" height="200" xlink:href="logo-onepager.png"  transform="matrix(1 0 0 1 2.72 0)">
</image>
</svg>
