<?xml version="1.0" encoding="utf-8"?>
<!-- Generator: Adobe Illustrator 18.1.0, SVG Export Plug-In . SVG Version: 6.00 Build 0)  -->
<!DOCTYPE svg PUBLIC "-//W3C//DTD SVG 1.1//EN" "http://www.w3.org/Graphics/SVG/1.1/DTD/svg11.dtd">
<svg version="1.1" id="Layer_1" xmlns="http://www.w3.org/2000/svg" xmlns:xlink="http://www.w3.org/1999/xlink" x="0px" y="0px"
	 viewBox="0 0 875 200" enable-background="new 0 0 875 200" xml:space="preserve">
<g>
	<rect x="-60.5" y="-35" display="none" fill="#636466" width="996" height="256"/>
	<path fill="#FFFFFF" d="M4.5,31.8h88.2v15.6h-71V86h62.4v15.1H21.7V159H4.5V31.8z"/>
	<path fill="#FFFFFF" d="M108.7,31.8h15.8v17.7h-15.8V31.8z M108.7,66.7h15.8V159h-15.8V66.7z"/>
	<path fill="#FFFFFF" d="M157.1,66.3l24.8,75.5l25.8-75.5h17.1L189.8,159h-16.6L139,66.3H157.1z"/>
	<path fill="#FFFFFF" d="M294.4,68.8c6.1,3.1,10.8,7.1,14,12c3.1,4.7,5.2,10.1,6.2,16.4c0.9,4.3,1.4,11.1,1.4,20.4h-67.4
		c0.3,9.4,2.5,17,6.6,22.7c4.1,5.7,10.5,8.5,19.1,8.5c8.1,0,14.5-2.7,19.3-8.1c2.7-3.1,4.6-6.8,5.7-10.9h15.3
		c-0.4,3.4-1.7,7.2-4,11.4c-2.3,4.2-4.8,7.6-7.6,10.3c-4.7,4.6-10.5,7.7-17.4,9.3c-3.7,0.9-7.9,1.4-12.6,1.4
		c-11.5,0-21.2-4.2-29.2-12.6c-8-8.4-12-20.2-12-35.3c0-14.9,4-27,12-36.3c8-9.3,18.5-13.9,31.5-13.9
		C282,64.2,288.3,65.7,294.4,68.8z M300,105.2c-0.6-6.8-2.1-12.1-4.4-16.2c-4.2-7.5-11.3-11.3-21.2-11.3c-7.1,0-13,2.6-17.9,7.7
		c-4.8,5.2-7.4,11.7-7.6,19.7H300z"/>
	<path fill="#FFFFFF" d="M391.3,31.8h17.4V159h-17.4V31.8z"/>
	<path fill="#FFFFFF" d="M442.5,129.9c0.5,5.2,1.8,9.2,4,11.9c4,5,11,7.5,20.8,7.5c5.9,0,11.1-1.3,15.5-3.8
		c4.5-2.5,6.7-6.4,6.7-11.6c0-4-1.8-7-5.4-9.1c-2.3-1.3-6.8-2.7-13.5-4.4l-12.6-3.1c-8-2-14-4.2-17.8-6.6
		c-6.8-4.2-10.2-10-10.2-17.5c0-8.8,3.2-15.9,9.6-21.3c6.4-5.4,15-8.1,25.8-8.1c14.1,0,24.4,4.1,30.6,12.3
		c3.9,5.2,5.8,10.8,5.7,16.8h-14.7c-0.3-3.5-1.6-6.7-3.8-9.6c-3.7-4.1-10-6.1-19-6.1c-6,0-10.6,1.1-13.7,3.4
		c-3.1,2.2-4.7,5.2-4.7,8.9c0,4,2,7.2,6.1,9.7c2.4,1.4,5.8,2.7,10.4,3.8l10.5,2.5c11.4,2.7,19,5.3,22.9,7.9c6.1,4,9.1,10.2,9.1,18.8
		c0,8.3-3.2,15.4-9.5,21.4c-6.3,6-16,9-29,9c-14,0-23.8-3.1-29.7-9.4c-5.8-6.3-8.9-14-9.3-23.2H442.5z"/>
	<path fill="#FFFFFF" d="M523.6,31.8h15.6V159h-15.6V31.8z"/>
	<path fill="#FFFFFF" d="M696.5,66.3h14.8v13.2c4.4-5.4,9-9.3,13.9-11.7c4.9-2.4,10.4-3.5,16.4-3.5c13.2,0,22,4.6,26.7,13.8
		c2.5,5,3.8,12.2,3.8,21.5V159h-15.8v-58.4c0-5.7-0.8-10.2-2.5-13.7c-2.8-5.8-7.8-8.7-15.1-8.7c-3.7,0-6.7,0.4-9.1,1.1
		c-4.3,1.3-8,3.8-11.2,7.6c-2.6,3.1-4.3,6.2-5.1,9.5c-0.8,3.3-1.2,7.9-1.2,14V159h-15.6V66.3z"/>
	<path fill="#FFFFFF" d="M847.3,69.1c2.8,1.7,5.9,4.8,9.4,9.1V31.4h15V159h-14v-12.9c-3.6,5.7-7.9,9.8-12.8,12.4
		c-4.9,2.5-10.6,3.8-17,3.8c-10.3,0-19.2-4.3-26.7-13c-7.5-8.7-11.3-20.2-11.3-34.7c0-13.5,3.4-25.2,10.3-35.1
		c6.9-9.9,16.7-14.8,29.4-14.8C836.6,64.6,842.5,66.1,847.3,69.1z M812.5,138.6c4.2,6.7,10.9,10,20.2,10c7.2,0,13.1-3.1,17.7-9.3
		c4.6-6.2,6.9-15.1,6.9-26.7c0-11.7-2.4-20.4-7.1-26c-4.8-5.6-10.7-8.4-17.7-8.4c-7.8,0-14.1,3-19,9c-4.9,6-7.3,14.8-7.3,26.5
		C806.2,123.6,808.3,131.9,812.5,138.6z"/>
	<path fill="#5E9732" d="M639,117l-0.1,0.7c-2.4,16.7-16.6,29.6-33.8,29.6c-18.9,0-34.1-15.5-34.1-34.6c0-19.1,15.3-34.6,34.1-34.6
		c15.3,0,25,8.5,31.7,21.6l27,59.4H679l-21.1-46.6l20.7-46h-16l-13.1,29.3c-6.7-18.2-24.1-31.1-44.4-31.1c-26.2,0-47.4,21.5-47.4,48
		c0,26.5,21.2,48,47.4,48c18.2,0,34-10.4,41.9-25.6L639,117z"/>
</g>
<image display="none" overflow="visible" width="875" height="200" xlink:href="logo-onepager.png"  transform="matrix(1.0598 0 0 1.0598 -23.5731 -5.9824)">
</image>
</svg>
